HIERARCHY
ROOT hip
{
	OFFSET	0.00  0.00  0.00 
	CHANNELS 6 Xposition Yposition Zposition Xrotation Zrotation Yrotation
	JOINT abdomen
	{
		OFFSET	0.000000 0.000000 0.000000
		CHANNELS 3 Xrotation Zrotation Yrotation
		JOINT chest
		{
			OFFSET	0.000000 5.018152 -1.882228
			CHANNELS 3 Xrotation Zrotation Yrotation
			JOINT neckDummy
			{
				OFFSET	0.000000 8.316447 0.784897
				CHANNELS 3 Xrotation Yrotation Zrotation
				JOINT neck
				{
					OFFSET	0.000000 2.280413 -0.392801
					CHANNELS 3 Xrotation Zrotation Yrotation
					JOINT head
					{
						OFFSET	0.000000 3.496879 0.529469
						CHANNELS 3 Xrotation Zrotation Yrotation
						JOINT figureHair
						{
							OFFSET	0.000000 4.699570 0.720622
							CHANNELS 3 Zrotation Yrotation Xrotation
							End Site
							{
								OFFSET 0.000000 -6.419331 0.000000
							}
						}
					}
				}
			}
			JOINT lCollar
			{
				OFFSET	0.599237 8.316447 0.784897
				CHANNELS 3 Yrotation Zrotation Xrotation
				JOINT lShldr
				{
					OFFSET	6.421198 0.010146 -0.332128
					CHANNELS 3 Zrotation Yrotation Xrotation
					JOINT lForeArm
					{
						OFFSET	10.552783 0.025574 0.125508
						CHANNELS 3 Yrotation Zrotation Xrotation
						JOINT lHand
						{
							OFFSET	11.035963 0.319619 0.041520
							CHANNELS 3 Zrotation Yrotation Xrotation
							End Site
							{
								OFFSET 10.353753 0.000000 0.000000
							}
						}
					}
				}
			}
			JOINT rCollar
			{
				OFFSET	-0.599237 8.316447 0.784897
				CHANNELS 3 Yrotation Zrotation Xrotation
				JOINT rShldr
				{
					OFFSET	-6.421198 0.010146 -0.332128
					CHANNELS 3 Zrotation Yrotation Xrotation
					JOINT rForeArm
					{
						OFFSET	-10.552783 0.025574 0.125508
						CHANNELS 3 Yrotation Zrotation Xrotation
						JOINT rHand
						{
							OFFSET	-11.035963 0.319619 0.041520
							CHANNELS 3 Zrotation Yrotation Xrotation
							End Site
							{
								OFFSET -10.353753 0.000000 0.000000
							}
						}
					}
				}
			}
		}
	}
	JOINT lThigh
	{
		OFFSET	4.500466 -6.400484 -1.832696
		CHANNELS 3 Xrotation Zrotation Yrotation
		JOINT lShin
		{
			OFFSET	-1.359117 -18.918689 1.179887
			CHANNELS 3 Xrotation Zrotation Yrotation
			JOINT lFoot
			{
				OFFSET	-0.652380 -17.215186 -0.312137
				CHANNELS 3 Xrotation Yrotation Zrotation
				End Site
				{
					OFFSET 0.000000 0.000000 10.353752
				}
			}
		}
	}
	JOINT rThigh
	{
		OFFSET	-4.500466 -6.400484 -1.832696
		CHANNELS 3 Xrotation Zrotation Yrotation
		JOINT rShin
		{
			OFFSET	1.359117 -18.918689 1.179887
			CHANNELS 3 Xrotation Zrotation Yrotation
			JOINT rFoot
			{
				OFFSET	0.652380 -17.215186 -0.312137
				CHANNELS 3 Xrotation Yrotation Zrotation
				End Site
				{
					OFFSET 0.000000 0.000000 10.353752
				}
			}
		}
	}
}
MOTION
Frames:     15
Frame Time: 0.250000
0.000000 42.014908 0.240040 5.627470 0.628675 2.030900 23.640602 6.232470 10.251670 19.432814 -0.649805 9.354021 0.000000 0.000000 0.000000 8.000000 0.000000 -3.000000 13.120400 1.366530 -9.091120 0.000000 0.000000 0.000000 26.917999 21.425800 2.626950 -75.000000 19.000000 57.000000 -87.812714 6.569095 15.136261 0.000000 0.000000 0.000000 9.000000 -3.427280 -2.382250 62.000000 27.000000 -10.000000 41.153973 26.453808 -25.216345 0.000000 0.000000 0.000000 -50.185658 -0.297489 -8.104393 88.748604 0.538639 -6.426938 2.455155 -10.215569 0.153396 -7.619316 2.436039 7.043865 0.000000 0.000000 0.000000 57.175735 0.000000 0.000000 
0.000000 42.014908 0.240040 5.627470 0.628675 2.030900 23.640602 6.232470 10.251680 19.432808 -0.649805 9.354021 0.000000 0.000000 0.000000 8.000000 0.000000 -3.000000 13.120400 1.366530 -9.091120 0.000000 0.000000 0.000000 26.917999 21.425800 2.626950 -74.250504 19.000000 57.000000 -86.705421 6.569097 15.136273 0.000000 0.000000 0.000000 9.000000 -3.427280 -2.382250 59.776947 27.000000 -10.000000 40.219429 26.504974 -25.283209 0.000000 0.000000 0.000000 -51.250557 -0.297489 -8.104392 89.805008 0.538639 -6.426939 2.455153 -10.215580 0.153396 -7.619318 2.436039 7.043867 0.381837 0.000000 0.000000 57.175735 0.000000 0.000000 
0.000000 42.014908 0.240040 5.627470 0.628675 2.030900 23.640602 6.232471 10.251693 19.432804 -0.649805 9.354021 0.000000 0.000000 0.000000 8.000000 0.000000 -3.000000 13.120401 1.366530 -9.091121 0.000000 0.000000 0.000000 26.918001 21.425802 2.626950 -73.397118 19.000002 57.000004 -85.440819 6.569099 15.136290 0.000000 0.000000 0.000000 9.000000 -3.427280 -2.382250 57.240013 27.000002 -10.000001 39.146545 26.563503 -25.359692 0.000000 0.000000 0.000000 -52.476471 -0.297489 -8.104392 91.023163 0.538639 -6.426940 2.455151 -10.215592 0.153396 -7.619319 2.436040 7.043869 0.881942 0.000000 0.000000 57.175735 0.000000 0.000000 
0.000000 42.014908 0.240040 5.627470 0.628675 2.030900 23.640600 6.232470 10.251700 19.432800 -0.649805 9.354020 0.000000 0.000000 0.000000 8.000000 0.000000 -3.000000 13.120400 1.366530 -9.091120 0.000000 0.000000 0.000000 26.917999 21.425800 2.626950 -73.000000 19.000000 57.000000 -84.812698 6.569100 15.136300 0.000000 0.000000 0.000000 9.000000 -3.427280 -2.382250 56.000000 27.000000 -10.000000 38.556145 26.593502 -25.398891 0.000000 0.000000 0.000000 -53.185699 -0.297489 -8.104390 91.748596 0.538639 -6.426940 2.455149 -10.215600 0.153396 -7.619320 2.436040 7.043870 1.791045 0.000000 0.000000 57.175728 0.000000 0.000000 
0.000000 42.014908 0.240040 5.627469 0.628675 2.030900 23.640598 6.232469 10.251701 19.432796 -0.649805 9.354018 0.000000 0.000000 0.000000 8.000000 0.000000 -3.000000 13.120399 1.366530 -9.091119 0.000000 0.000000 0.000000 26.917997 21.425798 2.626950 -73.456322 18.999998 56.999989 -85.396164 6.569099 15.136302 0.000000 0.000000 0.000000 8.999999 -3.427279 -2.382250 57.217453 26.999998 -9.999999 38.916645 26.568678 -25.366446 0.000000 0.000000 0.000000 -52.854774 -0.297489 -8.104388 91.468170 0.538639 -6.426939 2.455147 -10.215602 0.153396 -7.619319 2.436040 7.043869 3.328088 0.000000 0.000000 57.175739 0.000000 0.000000 
0.000000 42.014908 0.240040 5.627469 0.628675 2.030900 23.640598 6.232469 10.251700 19.432796 -0.649805 9.354018 0.000000 0.000000 0.000000 7.999999 0.000000 -3.000000 13.120398 1.366530 -9.091119 0.000000 0.000000 0.000000 26.917995 21.425798 2.626950 -74.335495 18.999996 56.999985 -86.663834 6.569099 15.136300 0.000000 0.000000 0.000000 8.999999 -3.427279 -2.382250 59.778343 26.999996 -9.999998 39.941162 26.510834 -25.290846 0.000000 0.000000 0.000000 -51.714844 -0.297489 -8.104389 90.353783 0.538639 -6.426939 2.455145 -10.215601 0.153396 -7.619319 2.436040 7.043869 4.968069 0.000000 0.000000 57.175739 0.000000 0.000000 
0.000000 42.014908 0.240040 5.627470 0.628675 2.030900 23.640600 6.232470 10.251700 19.432800 -0.649805 9.354020 0.000000 0.000000 0.000000 8.000000 0.000000 -3.000000 13.120400 1.366530 -9.091120 0.000000 0.000000 0.000000 26.917999 21.425800 2.626950 -75.000000 19.000000 57.000000 -87.812698 6.569100 15.136300 0.000000 0.000000 0.000000 9.000000 -3.427280 -2.382250 62.000000 27.000000 -10.000000 41.153999 26.453800 -25.216299 0.000000 0.000000 0.000000 -50.185699 -0.297489 -8.104390 88.748596 0.538639 -6.426940 2.455143 -10.215600 0.153396 -7.619320 2.436040 7.043870 6.000000 0.000000 0.000000 57.175735 0.000000 0.000000 
0.000000 42.014908 0.240040 5.627470 0.628675 2.030900 23.640598 6.232470 10.251699 19.432800 -0.649805 9.354020 0.000000 0.000000 0.000000 8.000000 0.000000 -3.000000 13.120400 1.366530 -9.091119 0.000000 0.000000 0.000000 26.917997 21.425798 2.626950 -74.973274 19.000000 57.000000 -88.223839 6.569099 15.136299 0.000000 0.000000 0.000000 8.999999 -3.427280 -2.382250 62.596664 26.999998 -10.000000 42.156628 26.424150 -25.177546 0.000000 0.000000 0.000000 -48.646481 -0.297489 -8.104389 86.983765 0.538639 -6.426939 2.455142 -10.215598 0.153396 -7.619320 2.436040 7.043869 5.901385 0.000000 0.000000 57.175728 0.000000 0.000000 
0.000000 42.014908 0.240040 5.627470 0.628675 2.030900 23.640596 6.232469 10.251698 19.432800 -0.649805 9.354019 0.000000 0.000000 0.000000 7.999999 0.000000 -3.000000 13.120399 1.366530 -9.091118 0.000000 0.000000 0.000000 26.917995 21.425798 2.626950 -74.422798 19.000000 56.999996 -88.014824 6.569099 15.136298 0.000000 0.000000 0.000000 8.999998 -3.427280 -2.382250 61.870296 26.999994 -9.999999 42.859310 26.419523 -25.171499 0.000000 0.000000 0.000000 -47.313801 -0.297489 -8.104388 85.342751 0.538639 -6.426939 2.455140 -10.215597 0.153396 -7.619319 2.436039 7.043869 4.903723 0.000000 0.000000 57.175724 0.000000 0.000000 
0.000000 42.014908 0.240040 5.627470 0.628675 2.030899 23.640594 6.232468 10.251698 19.432798 -0.649805 9.354018 0.000000 0.000000 0.000000 7.999998 0.000000 -3.000000 13.120398 1.366530 -9.091117 0.000000 0.000000 0.000000 26.917992 21.425797 2.626949 -73.677078 18.999998 56.999992 -87.487312 6.569098 15.136297 0.000000 0.000000 0.000000 8.999997 -3.427279 -2.382249 60.519756 26.999992 -9.999998 43.249489 26.430321 -25.185616 0.000000 0.000000 0.000000 -46.363651 -0.297489 -8.104387 84.097061 0.538639 -6.426939 2.455138 -10.215596 0.153396 -7.619319 2.436039 7.043868 3.427011 0.000000 0.000000 57.175720 0.000000 0.000000 
0.000000 42.014908 0.240040 5.627470 0.628675 2.030900 23.640596 6.232469 10.251698 19.432798 -0.649805 9.354018 0.000000 0.000000 0.000000 7.999999 0.000000 -3.000000 13.120399 1.366530 -9.091119 0.000000 0.000000 0.000000 26.917994 21.425797 2.626950 -73.064613 18.999998 56.999992 -86.943001 6.569099 15.136298 0.000000 0.000000 0.000000 8.999999 -3.427279 -2.382250 59.243935 26.999994 -9.999998 43.314621 26.446953 -25.207352 0.000000 0.000000 0.000000 -45.972008 -0.297489 -8.104388 83.518219 0.538639 -6.426939 2.455137 -10.215598 0.153396 -7.619319 2.436039 7.043869 1.891244 0.000000 0.000000 57.175732 0.000000 0.000000 
0.000000 42.014908 0.240040 5.627470 0.628675 2.030900 23.640598 6.232470 10.251700 19.432798 -0.649805 9.354019 0.000000 0.000000 0.000000 8.000000 0.000000 -3.000000 13.120399 1.366530 -9.091120 0.000000 0.000000 0.000000 26.917997 21.425798 2.626950 -72.913895 18.999998 56.999996 -86.683548 6.569099 15.136299 0.000000 0.000000 0.000000 9.000000 -3.427280 -2.382250 58.741707 26.999996 -9.999999 43.042164 26.459812 -25.224157 0.000000 0.000000 0.000000 -46.314842 -0.297489 -8.104390 83.877739 0.538639 -6.426939 2.455136 -10.215599 0.153396 -7.619319 2.436040 7.043869 0.716418 0.000000 0.000000 57.175747 0.000000 0.000000 
0.000000 42.014908 0.240040 5.627470 0.628675 2.030900 23.640598 6.232470 10.251701 19.432800 -0.649805 9.354019 0.000000 0.000000 0.000000 7.999999 0.000000 -3.000000 13.120399 1.366530 -9.091120 0.000000 0.000000 0.000000 26.917999 21.425798 2.626950 -73.423119 19.000000 56.999992 -86.906235 6.569099 15.136299 0.000000 0.000000 0.000000 9.000000 -3.427280 -2.382250 59.457661 26.999996 -9.999999 42.459564 26.462042 -25.227072 0.000000 0.000000 0.000000 -47.445007 -0.297489 -8.104391 85.278481 0.538639 -6.426940 2.455134 -10.215599 0.153396 -7.619319 2.436040 7.043870 0.190766 0.000000 0.000000 57.175751 0.000000 0.000000 
0.000000 42.014908 0.240040 5.627470 0.628675 2.030900 23.640600 6.232470 10.251701 19.432800 -0.649805 9.354019 0.000000 0.000000 0.000000 8.000000 0.000000 -3.000000 13.120400 1.366530 -9.091120 0.000000 0.000000 0.000000 26.917999 21.425800 2.626950 -74.248856 19.000000 56.999996 -87.373787 6.569100 15.136300 0.000000 0.000000 0.000000 9.000000 -3.427280 -2.382250 60.778282 27.000000 -10.000000 41.759525 26.458223 -25.222082 0.000000 0.000000 0.000000 -48.905117 -0.297489 -8.104390 87.124115 0.538639 -6.426940 2.455132 -10.215600 0.153396 -7.619320 2.436040 7.043870 0.043669 0.000000 0.000000 57.175751 0.000000 0.000000 
0.000000 42.014908 0.240040 5.627470 0.628675 2.030900 23.640600 6.232470 10.251700 19.432800 -0.649805 9.354020 0.000000 0.000000 0.000000 8.000000 0.000000 -3.000000 13.120400 1.366530 -9.091120 0.000000 0.000000 0.000000 26.917999 21.425800 2.626950 -75.000000 19.000000 57.000000 -87.812698 6.569100 15.136300 0.000000 0.000000 0.000000 9.000000 -3.427280 -2.382250 62.000000 27.000000 -10.000000 41.153999 26.453800 -25.216299 0.000000 0.000000 0.000000 -50.185699 -0.297489 -8.104390 88.748596 0.538639 -6.426940 2.455131 -10.215600 0.153396 -7.619320 2.436040 7.043870 0.000000 0.000000 0.000000 57.175751 0.000000 0.000000 
